# xmcd CD database file generated by Grip 2.96
# 
# Track frame offsets:
#       150
#       15555
#       32300
#       45650
#       62097
#       78302
#       91072
#       107925
#       124217
#       143552
#       158642
#       170592
#       187705
#       197225
#       212632
#       232472
#       251290
#       265402
#       279357
#       290927
# 
# Disc length: 4025 seconds
# 
# Revision: 0
# Processed by: cddbd v1.4PL0 Copyright (c) Steve Scherf et al.
# Submitted via: Grip 2.96
# 
DISCID=190fb714
DTITLE=Gica Petrescu - Cu paharelul dupa mine
DYEAR=1900
DGENRE=
TTITLE0=Trece timpul
TTITLE1=De n-ar fi fetele
TTITLE2=Hai noroc si iar noroc!
TTITLE3=Canta-mi lautar!
TTITLE4=Maiculita, dor ma frige
TTITLE5=Of, of, of, mai spritule!
TTITLE6=Nu ma supar, batranete!
TTITLE7=Hai sa bem un paharel!
TTITLE8=La crasma din Ferentari
TTITLE9=De ce e viata sucita?
TTITLE10=Tinerete fugi de mine
TTITLE11=Zum - zum!
TTITLE12=Cand se crapa de ziua altadata
TTITLE13=Suparare, suparare!
TTITLE14=Zi una mai saltareata!
TTITLE15=Imi amintesc cu drag de bunicuta!
TTITLE16=Dragoste, batute-ar vina!
TTITLE17=Dragostea se tine scai de tine!
TTITLE18=Mi-e dor asta seara de un chef cum stiu eu
TTITLE19=Dragi prieteni, sus pahraul!
EXTD=
EXTT0=
EXTT1=
EXTT2=
EXTT3=
EXTT4=
EXTT5=
EXTT6=
EXTT7=
EXTT8=
EXTT9=
EXTT10=
EXTT11=
EXTT12=
EXTT13=
EXTT14=
EXTT15=
EXTT16=
EXTT17=
EXTT18=
EXTT19=
PLAYORDER=
